<svg width="699" height="961" viewBox="0 0 699 961" fill="none" xmlns="http://www.w3.org/2000/svg">
<path d="M698.666 728H466V960.666H698.666V728Z" fill="#FDD4CB"/>
<path d="M582.333 960.666C518.071 960.666 466 908.596 466 844.333C466 780.071 518.071 728 582.333 728C646.596 728 698.666 780.071 698.666 844.333C698.666 908.596 646.596 960.666 582.333 960.666Z" fill="#DD4425"/>
<path d="M7.62939e-05 232.667L232.667 232.667L232.667 7.62939e-05L12.0001 7.62939e-05C5.37267 7.62939e-05 7.62939e-05 5.37265 7.62939e-05 12.0001L7.62939e-05 232.667Z" fill="#090E29"/>
<path d="M0 12C0 5.37258 5.37258 0 12 0H232.666C232.666 128.478 128.478 232.666 0 232.666V12Z" fill="#DD4425"/>
<path d="M232.667 495.333L232.667 262.667L7.62939e-05 262.667L7.62939e-05 495.333L232.667 495.333Z" fill="#FDD4CB"/>
<path d="M0 495.333V262.667H232.666C232.666 391.145 128.478 495.333 0 495.333Z" fill="#090E29"/>
<path d="M232.667 727.999L232.667 495.333L7.62939e-05 495.333L7.62939e-05 727.999H232.667Z" fill="#090E29"/>
<path d="M0 727.999V495.333H232.666C232.666 623.811 128.478 727.999 0 727.999Z" fill="#FDD4CB"/>
<path d="M232.666 262.667H465.332V495.333C336.854 495.333 232.666 391.145 232.666 262.667Z" fill="#5081A3"/>
<path d="M698 727.999V495.333L465.333 495.333L465.333 727.999H698Z" fill="#FDD4CB"/>
<path d="M465.332 727.999V495.333H697.998C697.998 623.811 593.81 727.999 465.332 727.999Z" fill="#5081A3"/>
<path d="M465.333 262.667V495.333H697.999V262.667H465.333Z" fill="#090E29"/>
<path d="M697.998 262.667V495.333H465.332C465.332 366.855 569.52 262.667 697.998 262.667Z" fill="#DD4425"/>
<path d="M697.999 262.666H465.333V30C593.811 30 697.999 134.188 697.999 262.666Z" fill="#090E29"/>
<path d="M232.667 30.0001L232.667 262.667H465.333V30.0001L232.667 30.0001Z" fill="#090E29"/>
<path d="M465.332 30V262.666H232.666C232.666 134.188 336.854 30 465.332 30Z" fill="#FDD4CB"/>
<path d="M232.666 728H465.333L465.333 495.333H232.666L232.666 728Z" fill="#FDD4CB"/>
<path d="M232.667 495.333C361.145 495.333 465.333 599.521 465.333 727.999H232.667V495.333Z" fill="#DD4425"/>
</svg>
