<svg width="207" height="71" viewBox="0 0 207 71" fill="none" xmlns="http://www.w3.org/2000/svg">
<path d="M31 31H0C0 13.8818 13.8818 0 31 0V31Z" fill="#090E29"/>
<path d="M63 31H31V0C48.6704 0 63 13.8818 63 31Z" fill="#DD4425"/>
<path d="M0 31H31V63C13.8818 63 0 48.6704 0 31Z" fill="#0096C7"/>
<path d="M31 63L63 63L63 31L31 31L31 63Z" fill="#0096C7"/>
<path d="M31 31H63V63C45.3296 63 31 48.6704 31 31Z" fill="white"/>
<path d="M83.2228 40.8267C86.6033 40.8267 89.1996 41.6422 91.0116 43.2732C92.8235 44.877 93.7295 47.3099 93.7295 50.5719V63.0897H87.8068V60.3578C86.6169 62.3965 84.3992 63.4159 81.1539 63.4159C79.4771 63.4159 78.0167 63.1305 76.7727 62.5596C75.5557 61.9888 74.6227 61.2005 73.9736 60.1947C73.3245 59.1889 73 58.0472 73 56.7696C73 54.7309 73.7572 53.1271 75.2717 51.9582C76.8133 50.7893 79.1796 50.2049 82.3709 50.2049H87.4011C87.4011 48.8186 86.982 47.7584 86.1436 47.0245C85.3052 46.2633 84.0476 45.8828 82.3709 45.8828C81.208 45.8828 80.0586 46.0731 78.9227 46.4536C77.8139 46.807 76.8673 47.2963 76.0831 47.9215L73.8113 43.4771C75.0013 42.6344 76.4211 41.982 78.0708 41.5199C79.7476 41.0578 81.4649 40.8267 83.2228 40.8267ZM82.736 59.1346C83.8178 59.1346 84.7778 58.8899 85.6162 58.4006C86.4546 57.8841 87.0496 57.1366 87.4011 56.158V53.9154H83.0605C80.4643 53.9154 79.1661 54.7717 79.1661 56.4842C79.1661 57.2997 79.4771 57.9521 80.0992 58.4414C80.7482 58.9035 81.6272 59.1346 82.736 59.1346Z" fill="#1C1C1C"/>
<path d="M99.457 32.8349H105.785V63.0897H99.457V32.8349Z" fill="#1C1C1C"/>
<path d="M111.659 32.8349H117.987V63.0897H111.659V32.8349Z" fill="#1C1C1C"/>
<path d="M123.86 41.1529H130.189V63.0897H123.86V41.1529ZM127.025 38.0948C125.862 38.0948 124.915 37.755 124.185 37.0754C123.455 36.3959 123.09 35.5532 123.09 34.5474C123.09 33.5416 123.455 32.6989 124.185 32.0194C124.915 31.3398 125.862 31 127.025 31C128.187 31 129.134 31.3262 129.864 31.9786C130.594 32.631 130.96 33.4465 130.96 34.4251C130.96 35.4852 130.594 36.3687 129.864 37.0754C129.134 37.755 128.187 38.0948 127.025 38.0948Z" fill="#1C1C1C"/>
<path d="M148.962 40.8267C150.991 40.8267 152.83 41.3024 154.479 42.2538C156.156 43.178 157.468 44.4964 158.414 46.209C159.361 47.8943 159.834 49.8651 159.834 52.1213C159.834 54.3775 159.361 56.3619 158.414 58.0744C157.468 59.7598 156.156 61.0781 154.479 62.0296C152.83 62.9538 150.991 63.4159 148.962 63.4159C146.177 63.4159 143.986 62.5324 142.39 60.7655V71H136.062V41.1529H142.106V43.6809C143.675 41.7781 145.96 40.8267 148.962 40.8267ZM147.867 58.1967C149.49 58.1967 150.815 57.6531 151.842 56.5657C152.897 55.4512 153.425 53.9698 153.425 52.1213C153.425 50.2729 152.897 48.805 151.842 47.7176C150.815 46.6031 149.49 46.0459 147.867 46.0459C146.244 46.0459 144.906 46.6031 143.851 47.7176C142.823 48.805 142.309 50.2729 142.309 52.1213C142.309 53.9698 142.823 55.4512 143.851 56.5657C144.906 57.6531 146.244 58.1967 147.867 58.1967Z" fill="#1C1C1C"/>
<path d="M171.413 63.4159C169.601 63.4159 167.83 63.1984 166.099 62.7635C164.368 62.3014 162.989 61.7305 161.961 61.051L164.07 56.4842C165.044 57.1094 166.22 57.6259 167.6 58.0336C168.979 58.4142 170.331 58.6045 171.656 58.6045C174.334 58.6045 175.672 57.9385 175.672 56.6065C175.672 55.9813 175.307 55.5328 174.577 55.261C173.847 54.9891 172.725 54.7581 171.21 54.5678C169.425 54.296 167.951 53.9833 166.788 53.63C165.625 53.2766 164.611 52.6514 163.746 51.7543C162.908 50.8573 162.488 49.5797 162.488 47.9215C162.488 46.5352 162.88 45.3119 163.665 44.2518C164.476 43.1645 165.639 42.3218 167.153 41.7238C168.695 41.1257 170.507 40.8267 172.589 40.8267C174.131 40.8267 175.659 41.0034 177.173 41.3568C178.715 41.683 179.986 42.1451 180.987 42.7431L178.877 47.2691C176.957 46.1818 174.861 45.6381 172.589 45.6381C171.237 45.6381 170.223 45.8284 169.547 46.209C168.871 46.5895 168.533 47.0788 168.533 47.6769C168.533 48.3564 168.898 48.8321 169.628 49.104C170.358 49.3758 171.521 49.634 173.117 49.8787C174.902 50.1777 176.362 50.5039 177.498 50.8573C178.634 51.1835 179.621 51.7951 180.459 52.6922C181.298 53.5892 181.717 54.8396 181.717 56.4434C181.717 57.8026 181.311 59.0122 180.5 60.0724C179.689 61.1325 178.499 61.9616 176.93 62.5596C175.388 63.1305 173.549 63.4159 171.413 63.4159Z" fill="#1C1C1C"/>
<path d="M207 52.2029C207 52.2844 206.959 52.8553 206.878 53.9154H190.368C190.665 55.2745 191.368 56.3483 192.477 57.1366C193.586 57.9249 194.965 58.3191 196.615 58.3191C197.751 58.3191 198.751 58.156 199.617 57.8298C200.509 57.4764 201.334 56.9327 202.091 56.1988L205.458 59.8685C203.403 62.2334 200.401 63.4159 196.453 63.4159C193.992 63.4159 191.815 62.9402 189.921 61.9888C188.028 61.0102 186.568 59.6646 185.54 57.9521C184.513 56.2396 183.999 54.296 183.999 52.1213C183.999 49.9738 184.499 48.0438 185.5 46.3313C186.527 44.5916 187.92 43.246 189.678 42.2946C191.463 41.316 193.451 40.8267 195.641 40.8267C197.778 40.8267 199.712 41.2888 201.442 42.213C203.173 43.1373 204.525 44.4692 205.499 46.209C206.5 47.9215 207 49.9195 207 52.2029ZM195.682 45.6381C194.249 45.6381 193.045 46.0459 192.071 46.8614C191.098 47.6769 190.503 48.7914 190.287 50.2049H201.037C200.82 48.8186 200.225 47.7176 199.252 46.9021C198.278 46.0595 197.088 45.6381 195.682 45.6381Z" fill="#1C1C1C"/>
</svg>
