<svg width="24" height="18" viewBox="0 0 24 18" fill="none" xmlns="http://www.w3.org/2000/svg">
<path fill-rule="evenodd" clip-rule="evenodd" d="M12 0C8.6202 0 5.66131 1.63249 3.14546 4.31606C2.28113 5.23802 1.5305 6.22245 0.894336 7.20747L0.655978 7.58488C0.398798 8.0018 0.214904 8.33413 0.105573 8.55279C-0.0351909 8.83431 -0.0351909 9.16569 0.105573 9.44721L0.217516 9.6618C0.36935 9.94303 0.595382 10.3296 0.894336 10.7925C1.5305 11.7776 2.28113 12.762 3.14546 13.6839C5.66131 16.3675 8.6202 18 12 18C15.3798 18 18.3387 16.3675 20.8545 13.6839C21.7189 12.762 22.4695 11.7776 23.1057 10.7925L23.344 10.4151C23.6012 9.9982 23.7851 9.66587 23.8944 9.44721C24.0352 9.16569 24.0352 8.83431 23.8944 8.55279L23.7825 8.3382C23.6306 8.05697 23.4046 7.67037 23.1057 7.20747C22.4695 6.22245 21.7189 5.23802 20.8545 4.31606C18.3387 1.63249 15.3798 0 12 0ZM12 2C14.7452 2 17.2238 3.36751 19.3955 5.68394C20.1718 6.51198 20.8508 7.40255 21.4256 8.29253L21.5707 8.52093L21.7054 8.73989L21.858 9L21.7054 9.26011C21.6191 9.40277 21.5259 9.55223 21.4256 9.70747C20.8508 10.5974 20.1718 11.488 19.3955 12.3161C17.2238 14.6325 14.7452 16 12 16C9.2548 16 6.77619 14.6325 4.60454 12.3161C3.82825 11.488 3.14919 10.5974 2.57441 9.70747L2.42925 9.47907L2.29461 9.26011L2.141 9L2.29461 8.73989C2.38085 8.59723 2.47415 8.44777 2.57441 8.29253C3.14919 7.40255 3.82825 6.51198 4.60454 5.68394C6.77619 3.36751 9.2548 2 12 2ZM12 5C9.79086 5 8 6.79086 8 9C8 11.2091 9.79086 13 12 13C14.2091 13 16 11.2091 16 9C16 6.79086 14.2091 5 12 5ZM12 7C13.1046 7 14 7.89543 14 9C14 10.1046 13.1046 11 12 11C10.8954 11 10 10.1046 10 9C10 7.89543 10.8954 7 12 7Z" fill="#4F4F4F"/>
</svg>
